<svg width="9" height="11" viewBox="0 0 9 11" fill="none" xmlns="http://www.w3.org/2000/svg">
<path d="M2.66511 2.67179C3.12362 2.02643 3.55638 1.43915 3.70128 0.716349C3.70128 0.716349 3.70128 0.716349 3.70128 0.701291C3.55253 0.532244 3.38205 0.387338 3.19511 0.271051C3.17697 0.257485 3.15587 0.249267 3.13391 0.247205C3.11195 0.245143 3.08987 0.249307 3.06985 0.259289C3.04982 0.269271 3.03258 0.284728 3.01974 0.30414C3.0069 0.323552 2.99892 0.346251 2.99662 0.370007C2.97517 0.506439 2.94664 0.641459 2.91124 0.774432C2.84914 0.995062 2.75246 1.20246 2.62542 1.38752C2.38723 1.73387 2.09346 2.04579 1.83145 2.37492C1.20819 3.16011 0.729838 4.1303 0.852903 5.1973C0.889216 5.51604 0.980112 5.82464 1.12089 6.10725C1.27279 5.11101 1.63931 4.16763 2.19073 3.35372C2.34159 3.12139 2.50632 2.89336 2.66511 2.67179Z" fill="#896CFE"/>
<path d="M8.21695 3.05901C8.21178 3.0572 8.20621 3.0572 8.20105 3.05901C8.20225 3.20417 8.18557 3.34886 8.15143 3.48924C8.10939 3.62283 8.04174 3.74526 7.95294 3.84849C7.87877 3.94186 7.78758 4.01759 7.6851 4.0709C7.58262 4.12421 7.47107 4.15396 7.35746 4.15827C7.17953 4.15627 7.008 4.08617 6.87315 3.96036C6.46227 3.59035 6.38088 2.9579 6.26178 2.4287C6.14038 1.89578 5.90681 1.40055 5.57932 0.981809C5.25183 0.563065 4.83931 0.232176 4.37412 0.0150585C4.35488 0.00520251 4.33386 6.12929e-05 4.31258 1.5722e-07C4.27391 -5.79281e-05 4.23671 0.0159808 4.20863 0.0448042C4.18056 0.0736277 4.16376 0.113035 4.16172 0.154887C4.14651 0.375846 4.11935 0.595646 4.08036 0.813153C3.86202 1.91026 3.08792 2.72127 2.50832 3.60971C1.84536 4.63153 1.38087 5.87923 1.49997 7.14843C1.64685 8.71666 2.67106 9.86325 3.92354 10.3752C3.69067 10.1922 3.49617 9.95788 3.35283 9.68759C3.20949 9.41731 3.12056 9.1172 3.09188 8.80701C3.05425 8.0601 3.25932 7.32252 3.67146 6.7225C4.00095 6.19975 4.44757 5.72219 4.5746 5.07683C4.59734 4.94893 4.61258 4.8196 4.62025 4.68961C4.62063 4.67403 4.62457 4.65878 4.63169 4.64523C4.63881 4.63169 4.64888 4.62025 4.66106 4.61195C4.67323 4.60365 4.68712 4.59874 4.70147 4.59765C4.71582 4.59656 4.73022 4.59933 4.74334 4.60572C5.0115 4.7374 5.24813 4.93411 5.43501 5.18065C5.62189 5.4272 5.75401 5.71699 5.82114 6.02766C5.88862 6.33743 5.93627 6.71174 6.17247 6.92901C6.498 7.22803 6.92869 6.9075 6.93067 6.47511V6.42993L6.94856 6.40197C6.99264 6.47779 7.03179 6.55686 7.06568 6.6386V6.64935C7.26266 7.10266 7.37379 7.59416 7.39255 8.09481C7.4113 8.59546 7.3373 9.09511 7.17486 9.56423C7.09868 9.76675 6.99423 9.95538 6.86521 10.1235C6.75406 10.2667 6.62588 10.3933 6.48407 10.5C7.10187 10.3021 7.65346 9.91429 8.072 9.38353C8.29633 9.0984 8.47912 8.77775 8.61393 8.4327C8.73318 8.12528 8.82488 7.80615 8.88782 7.47972C8.95099 7.14963 8.98753 6.81421 8.997 6.47726C9.00723 6.13809 8.99263 5.79857 8.95334 5.46189C8.91489 5.1266 8.85247 4.79504 8.76672 4.47019C8.683 4.15008 8.57549 3.83785 8.44519 3.53657C8.40946 3.45698 8.37174 3.37308 8.33402 3.29349L8.27248 3.16656C8.26145 3.12673 8.24252 3.09001 8.21695 3.05901Z" fill="#896CFE"/>
</svg>
