<svg width="11" height="11" viewBox="0 0 11 11" fill="none" xmlns="http://www.w3.org/2000/svg">
<path d="M5.25 10.5C6.64225 10.4996 7.97736 9.94622 8.96183 8.96159C9.9463 7.97697 10.4996 6.64165 10.5 5.24919C10.4996 3.85687 9.94623 2.52171 8.96171 1.53735C7.97719 0.55299 6.6421 -7.0338e-08 5.25 0C3.8579 -7.0338e-08 2.52277 0.55299 1.53825 1.53735C0.553732 2.52171 0.000442498 3.85687 0 5.24919C0.000442336 6.64165 0.553698 7.97697 1.53817 8.96159C2.52264 9.94622 3.85775 10.4996 5.25 10.5ZM2.97542 6.59608L4.91624 5.09394V2.98261C4.91624 2.89408 4.95139 2.80915 5.01398 2.74655C5.07657 2.68395 5.16148 2.6488 5.25 2.6488C5.33852 2.6488 5.42339 2.68395 5.48598 2.74655C5.54857 2.80915 5.58376 2.89408 5.58376 2.98261V5.2575C5.58376 5.2575 5.58376 5.27087 5.58376 5.27755C5.58376 5.28422 5.58376 5.30091 5.58376 5.31259C5.58175 5.3228 5.57896 5.33284 5.57541 5.34262C5.57636 5.35317 5.57636 5.36382 5.57541 5.37436L5.56204 5.4044L5.54705 5.43276L5.52867 5.45949C5.52233 5.46806 5.51508 5.47588 5.507 5.48284C5.49951 5.492 5.4911 5.50037 5.48194 5.50786L5.46858 5.52122L3.39763 7.13188C3.32784 7.1859 3.23952 7.21006 3.15196 7.19911C3.06439 7.18816 2.9847 7.14298 2.93036 7.07344C2.90131 7.03944 2.8794 6.99995 2.86591 6.95731C2.85242 6.91467 2.84765 6.86973 2.85185 6.8252C2.85605 6.78068 2.86916 6.73747 2.89039 6.69811C2.91162 6.65875 2.94052 6.62404 2.97542 6.59608Z" fill="#896CFE"/>
</svg>
