<svg width="52" height="50" viewBox="0 0 52 50" fill="none" xmlns="http://www.w3.org/2000/svg">
<path d="M28.3393 27.8271C28.3385 26.795 28.5391 25.7728 28.9295 24.8191C29.32 23.8653 29.8926 22.9988 30.6147 22.269C31.3369 21.5391 32.1944 20.9603 33.1381 20.5657C34.0817 20.1711 35.0931 19.9685 36.1143 19.9693C36.5815 19.9716 37.0476 20.0159 37.507 20.1019C37.3162 19.7871 37.1077 19.4836 36.8825 19.193C34.8216 16.6684 31.2183 14.7245 28.3331 17.1796C28.0757 17.4113 27.8317 17.6579 27.6025 17.9181C26.9591 18.7528 26.4122 19.6591 25.9725 20.6194C25.9196 20.7317 25.8454 20.8324 25.754 20.9158C25.6626 20.9991 25.5559 21.0634 25.4399 21.1051C25.3239 21.1467 25.2009 21.1647 25.078 21.1583C24.955 21.1518 24.8346 21.1211 24.7235 21.0675C24.6123 21.0141 24.5127 20.9391 24.4303 20.8467C24.3478 20.7544 24.2841 20.6465 24.2429 20.5292C24.2017 20.412 24.1839 20.2877 24.1903 20.1635C24.1967 20.0393 24.2271 19.9175 24.2801 19.8052C24.3363 19.6853 24.3925 19.578 24.455 19.4644C22.8862 19.4161 21.3321 19.1419 19.8398 18.6502C18.7168 18.2688 17.6623 17.7061 16.7173 16.9839C15.7648 17.5691 14.9197 18.3165 14.2193 19.193C11.559 22.4876 11.5527 26.6216 12.8267 30.5536V30.642C14.1257 34.5741 16.8423 39.7748 21.1701 40.854C21.8935 41.0213 22.645 41.0213 23.3684 40.854C24.1989 40.6773 24.8671 40.0588 25.7726 40.1661C26.4408 40.2418 27.0216 40.6836 27.6461 40.8603C28.3757 41.0466 29.1397 41.0466 29.8693 40.8603C32.4423 40.2292 34.4406 38.1211 35.9207 35.6975C33.8892 35.6496 31.9572 34.7985 30.5397 33.327C29.1222 31.8555 28.3323 29.8808 28.3393 27.8271Z" fill="white"/>
<path d="M19.2465 16.3276C20.9495 17.1366 22.8043 17.5671 24.6859 17.5899C24.5753 16.969 24.406 16.3603 24.1802 15.7722C23.4038 13.6901 21.9504 11.9365 20.0584 10.7988C18.3726 9.81409 16.4997 9.20109 14.5628 9C14.6453 10.0089 14.8747 10.9999 15.2436 11.9411C15.9859 13.8592 17.4147 15.4251 19.2465 16.3276Z" fill="white"/>
<path d="M40.3109 32.0243C40.8596 31.4712 41.2948 30.814 41.5916 30.0905C41.8885 29.367 42.0411 28.5914 42.0408 27.8082C42.0416 27.024 41.8893 26.2473 41.5924 25.5228C41.2956 24.7982 40.86 24.14 40.3109 23.5859C39.7635 23.0319 39.1131 22.5928 38.3972 22.2939C37.6813 21.9949 36.9139 21.842 36.1393 21.8439C35.3637 21.8419 34.5954 21.9947 33.8784 22.2937C33.1614 22.5926 32.51 23.0318 31.9614 23.5859C31.4064 24.1404 30.966 24.801 30.6658 25.5291C30.3656 26.2572 30.2116 27.0384 30.2128 27.8272C30.2117 28.6099 30.3633 29.3852 30.6591 30.1087C30.9548 30.8321 31.3889 31.4896 31.9364 32.0433C32.4847 32.5982 33.136 33.0383 33.8529 33.3383C34.5699 33.6383 35.3383 33.7923 36.1143 33.7915C36.8948 33.793 37.6678 33.6375 38.3883 33.3341C39.1088 33.0307 39.7624 32.5855 40.3109 32.0243ZM35.7958 30.295C35.6299 30.478 35.3995 30.5878 35.1542 30.6008C34.9089 30.6138 34.6684 30.5289 34.4845 30.3644L32.9481 29.0011C32.762 28.8347 32.6485 28.6008 32.6321 28.3502C32.6158 28.0997 32.6979 27.8527 32.8607 27.663C33.0254 27.475 33.2568 27.3603 33.5047 27.3438C33.7526 27.3272 33.997 27.4102 34.1847 27.5747L35.0339 28.3321L38.1002 24.9617C38.1829 24.8703 38.2826 24.7963 38.3937 24.744C38.5047 24.6916 38.625 24.6619 38.7474 24.6566C38.8698 24.6513 38.9921 24.6706 39.1072 24.7132C39.2223 24.7558 39.3279 24.821 39.4179 24.9049C39.5086 24.989 39.5819 25.0904 39.6338 25.2032C39.6857 25.3159 39.7151 25.4379 39.7203 25.5622C39.7255 25.6865 39.7066 25.8105 39.6643 25.9273C39.6221 26.0441 39.5575 26.1514 39.4742 26.243L35.7958 30.295Z" fill="white"/>
</svg>
