<svg width="49" height="52" viewBox="0 0 49 52" fill="none" xmlns="http://www.w3.org/2000/svg">
<path d="M26.6513 30.5941C26.65 28.9168 26.9772 27.2558 27.614 25.706C28.2509 24.1562 29.1849 22.748 30.3628 21.5621C31.5407 20.3761 32.9393 19.4356 34.4786 18.7943C36.0178 18.1531 37.6675 17.8238 39.3333 17.8252C40.0953 17.8288 40.8555 17.9009 41.6048 18.0405C41.2936 17.529 40.9535 17.0358 40.5861 16.5636C37.2247 12.4611 31.3472 9.30226 26.6411 13.2919C26.2212 13.6684 25.8234 14.0691 25.4494 14.4919C24.4 15.8484 23.5079 17.321 22.7907 18.8815C22.7045 19.064 22.5834 19.2277 22.4343 19.3631C22.2853 19.4985 22.1112 19.6031 21.922 19.6707C21.7328 19.7383 21.5321 19.7677 21.3316 19.7572C21.1311 19.7468 20.9347 19.6967 20.7534 19.6097C20.5721 19.5229 20.4097 19.401 20.2752 19.2509C20.1407 19.1008 20.0367 18.9255 19.9696 18.735C19.9024 18.5445 19.8734 18.3426 19.8838 18.1407C19.8942 17.9388 19.9439 17.741 20.0302 17.5585C20.1219 17.3636 20.2136 17.1892 20.3155 17.0046C17.7566 16.9261 15.2217 16.4806 12.7877 15.6816C10.9559 15.0618 9.23592 14.1474 7.69451 12.9739C6.14083 13.9248 4.76231 15.1393 3.61999 16.5636C-0.719382 21.9173 -0.729548 28.6351 1.34846 35.0247V35.1683C3.46721 41.5579 7.89837 50.009 14.9575 51.7628C16.1374 52.0347 17.3631 52.0347 18.5431 51.7628C19.8979 51.4756 20.9876 50.4706 22.4647 50.6449C23.5546 50.768 24.5019 51.4859 25.5206 51.7731C26.7107 52.0757 27.9568 52.0757 29.1469 51.7731C33.3437 50.7474 36.6033 47.3218 39.0174 43.3835C35.7038 43.3056 32.5525 41.9226 30.2404 39.5314C27.9283 37.1401 26.6398 33.9313 26.6513 30.5941Z" fill="#E2F163"/>
<path d="M11.82 11.9074C14.5977 13.222 17.6231 13.9215 20.6922 13.9586C20.5118 12.9497 20.2357 11.9605 19.8673 11.0048C18.601 7.62147 16.2303 4.77174 13.1442 2.92298C10.3945 1.3229 7.33953 0.326777 4.18022 0C4.31476 1.63945 4.68898 3.24984 5.29061 4.77928C6.5014 7.89621 8.83207 10.4407 11.82 11.9074Z" fill="#E2F163"/>
<path d="M46.1784 37.4145C47.0733 36.5156 47.7832 35.4477 48.2674 34.272C48.7515 33.0964 49.0005 31.8361 49 30.5633C49.0013 29.289 48.7528 28.0269 48.2686 26.8495C47.7844 25.672 47.074 24.6024 46.1784 23.702C45.2855 22.8019 44.2246 22.0884 43.0568 21.6026C41.8891 21.1168 40.6375 20.8683 39.374 20.8713C38.1089 20.8681 36.8556 21.1164 35.6862 21.6022C34.5167 22.088 33.4542 22.8016 32.5594 23.702C31.6541 24.6032 30.9357 25.6766 30.446 26.8597C29.9564 28.0429 29.7053 29.3123 29.7072 30.5941C29.7053 31.8661 29.9527 33.126 30.4351 34.3016C30.9175 35.4772 31.6256 36.5456 32.5186 37.4453C33.4129 38.3471 34.4752 39.0622 35.6446 39.5497C36.8141 40.0373 38.0675 40.2875 39.3332 40.2862C40.6063 40.2886 41.8672 40.036 43.0424 39.543C44.2176 39.05 45.2837 38.3265 46.1784 37.4145ZM38.8137 34.6043C38.543 34.9018 38.1673 35.0803 37.7672 35.1014C37.3671 35.1225 36.9748 34.9845 36.6747 34.7171L34.1687 32.5018C33.8652 32.2313 33.6801 31.8512 33.6534 31.4441C33.6267 31.037 33.7607 30.6357 34.0262 30.3275C34.2948 30.0219 34.6723 29.8355 35.0766 29.8086C35.481 29.7818 35.8796 29.9165 36.1858 30.1839L37.571 31.4147L42.5724 25.9378C42.7072 25.7892 42.87 25.6691 43.0511 25.584C43.2323 25.4989 43.4284 25.4506 43.6281 25.442C43.8278 25.4334 44.0273 25.4647 44.215 25.5339C44.4027 25.6031 44.5749 25.7091 44.7218 25.8455C44.8697 25.9822 44.9893 26.1469 45.0739 26.3302C45.1586 26.5134 45.2064 26.7117 45.2149 26.9136C45.2235 27.1155 45.1926 27.3171 45.1237 27.5069C45.0548 27.6967 44.9494 27.871 44.8136 28.0198L38.8137 34.6043Z" fill="#E2F163"/>
</svg>
