<svg width="30" height="32" viewBox="0 0 30 32" fill="none" xmlns="http://www.w3.org/2000/svg">
<path d="M17.1324 31.9681H17.2739L17.7279 31.9283H17.9735L18.368 31.8885L18.8815 31.8247H19.008C20.7831 31.6162 22.5192 31.1247 24.1585 30.3666C25.6682 29.6848 26.9809 28.5847 27.9617 27.1795C28.6406 26.1412 29.112 24.9639 29.3461 23.7215V23.6737C29.8239 21.4591 30.0414 19.1893 29.9935 16.9171V15.69C30.0154 13.5754 29.8207 11.4647 29.413 9.39549C29.3862 9.33912 29.3639 9.28049 29.3461 9.2202C29.0642 7.84633 28.5925 6.52512 27.9468 5.30007C27.3356 4.15858 26.4878 3.18266 25.4684 2.44761C24.0654 1.49472 22.5076 0.832533 20.8761 0.495512C19.199 0.148069 17.4935 -0.0174314 15.7854 0.00151504H14.2223C12.5117 -0.0178049 10.8035 0.147696 9.12396 0.495512C7.49292 0.833986 5.93547 1.49607 4.53183 2.44761C3.51294 3.18075 2.66699 4.15723 2.06078 5.30007C1.41257 6.52471 0.938546 7.84593 0.654173 9.2202C0.636364 9.28049 0.613895 9.33912 0.587123 9.39549C0.179359 11.4647 -0.0153372 13.5754 0.00656494 15.69C0.00656494 15.8812 0.00656494 16.0804 0.00656494 16.2717C0.00656494 16.4788 0.00656494 16.678 0.00656494 16.8852C-0.0416594 19.1575 0.175958 21.4273 0.654173 23.6418V23.6896C0.870051 24.88 1.31168 26.0103 1.95175 27.0108C2.59183 28.0112 3.41676 28.8605 4.37556 29.5061C6.39471 30.7898 8.65427 31.5789 10.9921 31.8167H11.1188L11.6397 31.8805L12.0342 31.9203H12.2799L12.7263 31.9602H12.8677L13.7163 32H16.2616L17.1324 31.9681ZM22.0819 6.06498C22.2135 5.76784 22.4211 5.51677 22.6807 5.34096C22.9402 5.16516 23.241 5.07183 23.5482 5.07183C23.8553 5.07183 24.1561 5.16516 24.4156 5.34096C24.6752 5.51677 24.8828 5.76784 25.0144 6.06498C25.1635 6.48867 25.1635 6.95596 25.0144 7.37965C24.8828 7.67678 24.6752 7.92785 24.4156 8.10366C24.1561 8.27947 23.8553 8.3728 23.5482 8.3728C23.241 8.3728 22.9402 8.27947 22.6807 8.10366C22.4211 7.92785 22.2135 7.67678 22.0819 7.37965C21.9384 6.96311 21.9384 6.50541 22.0819 6.08888V6.06498ZM15.2495 23.9924H14.7805C14.0259 23.992 13.2748 23.8821 12.5477 23.6657C11.3972 23.3355 10.3444 22.6965 9.48883 21.8092C8.77381 21.0512 8.22241 20.1347 7.87363 19.1241C7.16872 17.0965 7.16872 14.8651 7.87363 12.8376C8.22241 11.827 8.77381 10.9105 9.48883 10.1524C10.0822 9.52885 10.7786 9.029 11.5429 8.6784C12.5573 8.2154 13.648 7.97429 14.7507 7.96927H15.2197C15.9744 7.96966 16.7255 8.07954 17.4526 8.29594C18.6031 8.62621 19.6558 9.26518 20.5114 10.1524C21.2265 10.9105 21.7779 11.827 22.1266 12.8376C22.841 14.8633 22.841 17.0984 22.1266 19.1241C21.7779 20.1347 21.2265 21.0512 20.5114 21.8092C19.9181 22.4328 19.2215 22.9327 18.4572 23.2833C17.4433 23.749 16.3528 23.9928 15.2495 24.0004V23.9924Z" fill="white"/>
<path d="M16.8496 21.387C17.6381 21.1658 18.3606 20.7325 18.9485 20.1281C19.4315 19.6126 19.8024 18.9897 20.0351 18.3034C20.2961 17.5706 20.4298 16.793 20.4296 16.0087C20.4287 15.2227 20.2976 14.4431 20.0426 13.7061C19.8047 13.0207 19.4315 12.3983 18.9485 11.8814C18.5484 11.4629 18.0788 11.1279 17.5641 10.8934C16.8303 10.5656 16.0445 10.3924 15.2495 10.3835H14.7805C14.2397 10.3887 13.7018 10.469 13.1804 10.6225C12.3938 10.8488 11.6724 11.2815 11.0814 11.8814C10.5985 12.3969 10.2275 13.0198 9.99483 13.7061C9.47859 15.1887 9.47859 16.8208 9.99483 18.3034C10.2275 18.9897 10.5985 19.6126 11.0814 20.1281C11.4829 20.5449 11.9521 20.8797 12.4659 21.1161C13.1998 21.4433 13.9855 21.6165 14.7805 21.626H15.2495C15.7903 21.6208 16.3281 21.5405 16.8496 21.387Z" fill="white"/>
</svg>
